{
    "asset" : {
        "generator" : "Khronos glTF Blender I/O v3.4.50",
        "version" : "2.0"
    },
    "scene" : 0,
    "scenes" : [
        {
            "name" : "Scene",
            "nodes" : [
                0
            ]
        }
    ],
    "nodes" : [
        {
            "mesh" : 0,
            "name" : "194:::-material.006",
            "rotation" : [
                0,
                -0.722365140914917,
                0,
                0.6915118098258972
            ],
            "scale" : [
                0.650200605392456,
                0.6502012014389038,
                0.6502004861831665
            ],
            "translation" : [
                13.263824462890625,
                10.942970275878906,
                55.74385070800781
            ]
        }
    ],
    "animations" : [
        {
            "channels" : [
                {
                    "sampler" : 0,
                    "target" : {
                        "node" : 0,
                        "path" : "translation"
                    }
                },
                {
                    "sampler" : 1,
                    "target" : {
                        "node" : 0,
                        "path" : "rotation"
                    }
                },
                {
                    "sampler" : 2,
                    "target" : {
                        "node" : 0,
                        "path" : "scale"
                    }
                }
            ],
            "name" : "194:::-material.006",
            "samplers" : [
                {
                    "input" : 3,
                    "interpolation" : "LINEAR",
                    "output" : 4
                },
                {
                    "input" : 3,
                    "interpolation" : "LINEAR",
                    "output" : 5
                },
                {
                    "input" : 3,
                    "interpolation" : "LINEAR",
                    "output" : 6
                }
            ]
        }
    ],
    "materials" : [
        {
            "doubleSided" : true,
            "name" : "material.001",
            "pbrMetallicRoughness" : {
                "baseColorFactor" : [
                    0.4085969924926758,
                    0.40359899401664734,
                    0.4136259853839874,
                    1
                ],
                "metallicFactor" : 0,
                "roughnessFactor" : 0.17244665324687958
            }
        }
    ],
    "meshes" : [
        {
            "name" : "194:::-material.006",
            "primitives" : [
                {
                    "attributes" : {
                        "POSITION" : 0,
                        "NORMAL" : 1
                    },
                    "indices" : 2,
                    "material" : 0
                }
            ]
        }
    ],
    "accessors" : [
        {
            "bufferView" : 0,
            "componentType" : 5126,
            "count" : 1273,
            "max" : [
                23.959999084472656,
                5,
                3.9600000381469727
            ],
            "min" : [
                -23.959999084472656,
                0.019999800249934196,
                -3.9600000381469727
            ],
            "type" : "VEC3"
        },
        {
            "bufferView" : 1,
            "componentType" : 5126,
            "count" : 1273,
            "type" : "VEC3"
        },
        {
            "bufferView" : 2,
            "componentType" : 5123,
            "count" : 2388,
            "type" : "SCALAR"
        },
        {
            "bufferView" : 3,
            "componentType" : 5126,
            "count" : 2,
            "max" : [
                0.041666666666666664
            ],
            "min" : [
                0
            ],
            "type" : "SCALAR"
        },
        {
            "bufferView" : 4,
            "componentType" : 5126,
            "count" : 2,
            "type" : "VEC3"
        },
        {
            "bufferView" : 5,
            "componentType" : 5126,
            "count" : 2,
            "type" : "VEC4"
        },
        {
            "bufferView" : 6,
            "componentType" : 5126,
            "count" : 2,
            "type" : "VEC3"
        }
    ],
    "bufferViews" : [
        {
            "buffer" : 0,
            "byteLength" : 15276,
            "byteOffset" : 0,
            "target" : 34962
        },
        {
            "buffer" : 0,
            "byteLength" : 15276,
            "byteOffset" : 15276,
            "target" : 34962
        },
        {
            "buffer" : 0,
            "byteLength" : 4776,
            "byteOffset" : 30552,
            "target" : 34963
        },
        {
            "buffer" : 0,
            "byteLength" : 8,
            "byteOffset" : 35328
        },
        {
            "buffer" : 0,
            "byteLength" : 24,
            "byteOffset" : 35336
        },
        {
            "buffer" : 0,
            "byteLength" : 32,
            "byteOffset" : 35360
        },
        {
            "buffer" : 0,
            "byteLength" : 24,
            "byteOffset" : 35392
        }
    ],
    "buffers" : [
        {
            "byteLength" : 35416,
            "uri" : "data:application/octet-stream;base64,"
        }
    ]
}
