{
    "asset" : {
        "generator" : "Khronos glTF Blender I/O v3.4.50",
        "version" : "2.0"
    },
    "scene" : 0,
    "scenes" : [
        {
            "name" : "Scene",
            "nodes" : [
                0
            ]
        }
    ],
    "nodes" : [
        {
            "mesh" : 0,
            "name" : "194:::-material.022",
            "rotation" : [
                0,
                -0.7071068286895752,
                0,
                0.7071067094802856
            ],
            "scale" : [
                0.6502012610435486,
                0.6502012014389038,
                0.650201141834259
            ],
            "translation" : [
                -54.30992126464844,
                88.18050384521484,
                38.37970733642578
            ]
        }
    ],
    "animations" : [
        {
            "channels" : [
                {
                    "sampler" : 0,
                    "target" : {
                        "node" : 0,
                        "path" : "translation"
                    }
                },
                {
                    "sampler" : 1,
                    "target" : {
                        "node" : 0,
                        "path" : "rotation"
                    }
                },
                {
                    "sampler" : 2,
                    "target" : {
                        "node" : 0,
                        "path" : "scale"
                    }
                }
            ],
            "name" : "194:::-material.022",
            "samplers" : [
                {
                    "input" : 3,
                    "interpolation" : "LINEAR",
                    "output" : 4
                },
                {
                    "input" : 3,
                    "interpolation" : "LINEAR",
                    "output" : 5
                },
                {
                    "input" : 3,
                    "interpolation" : "LINEAR",
                    "output" : 6
                }
            ]
        }
    ],
    "materials" : [
        {
            "doubleSided" : true,
            "name" : "material.001",
            "pbrMetallicRoughness" : {
                "baseColorFactor" : [
                    0.4085969924926758,
                    0.40359899401664734,
                    0.4136259853839874,
                    1
                ],
                "metallicFactor" : 0,
                "roughnessFactor" : 0.17244665324687958
            }
        }
    ],
    "meshes" : [
        {
            "name" : "194:::-material.022",
            "primitives" : [
                {
                    "attributes" : {
                        "POSITION" : 0,
                        "NORMAL" : 1
                    },
                    "indices" : 2,
                    "material" : 0
                }
            ]
        }
    ],
    "accessors" : [
        {
            "bufferView" : 0,
            "componentType" : 5126,
            "count" : 2004,
            "max" : [
                31.959999084472656,
                5,
                7.960000038146973
            ],
            "min" : [
                -31.959999084472656,
                0.019999999552965164,
                -7.960000038146973
            ],
            "type" : "VEC3"
        },
        {
            "bufferView" : 1,
            "componentType" : 5126,
            "count" : 2004,
            "type" : "VEC3"
        },
        {
            "bufferView" : 2,
            "componentType" : 5123,
            "count" : 4404,
            "type" : "SCALAR"
        },
        {
            "bufferView" : 3,
            "componentType" : 5126,
            "count" : 2,
            "max" : [
                0.041666666666666664
            ],
            "min" : [
                0
            ],
            "type" : "SCALAR"
        },
        {
            "bufferView" : 4,
            "componentType" : 5126,
            "count" : 2,
            "type" : "VEC3"
        },
        {
            "bufferView" : 5,
            "componentType" : 5126,
            "count" : 2,
            "type" : "VEC4"
        },
        {
            "bufferView" : 6,
            "componentType" : 5126,
            "count" : 2,
            "type" : "VEC3"
        }
    ],
    "bufferViews" : [
        {
            "buffer" : 0,
            "byteLength" : 24048,
            "byteOffset" : 0,
            "target" : 34962
        },
        {
            "buffer" : 0,
            "byteLength" : 24048,
            "byteOffset" : 24048,
            "target" : 34962
        },
        {
            "buffer" : 0,
            "byteLength" : 8808,
            "byteOffset" : 48096,
            "target" : 34963
        },
        {
            "buffer" : 0,
            "byteLength" : 8,
            "byteOffset" : 56904
        },
        {
            "buffer" : 0,
            "byteLength" : 24,
            "byteOffset" : 56912
        },
        {
            "buffer" : 0,
            "byteLength" : 32,
            "byteOffset" : 56936
        },
        {
            "buffer" : 0,
            "byteLength" : 24,
            "byteOffset" : 56968
        }
    ],
    "buffers" : [
        {
            "byteLength" : 56992,
            "uri" : "data:application/octet-stream;base64,"
        }
    ]
}
