{
    "asset" : {
        "generator" : "Khronos glTF Blender I/O v3.4.50",
        "version" : "2.0"
    },
    "extensionsUsed" : [
        "KHR_materials_transmission"
    ],
    "scene" : 0,
    "scenes" : [
        {
            "name" : "Scene",
            "nodes" : [
                0
            ]
        }
    ],
    "nodes" : [
        {
            "mesh" : 0,
            "name" : "board_board_0",
            "rotation" : [
                -0.70710688829422,
                0,
                0,
                0.7071066498756409
            ],
            "scale" : [
                0.30244460701942444,
                0.30244481563568115,
                0.30244481563568115
            ],
            "translation" : [
                14.900175094604492,
                15.864631652832031,
                -4.550074577331543
            ]
        }
    ],
    "animations" : [
        {
            "channels" : [
                {
                    "sampler" : 0,
                    "target" : {
                        "node" : 0,
                        "path" : "translation"
                    }
                },
                {
                    "sampler" : 1,
                    "target" : {
                        "node" : 0,
                        "path" : "rotation"
                    }
                },
                {
                    "sampler" : 2,
                    "target" : {
                        "node" : 0,
                        "path" : "scale"
                    }
                }
            ],
            "name" : "board_board_0",
            "samplers" : [
                {
                    "input" : 32,
                    "interpolation" : "LINEAR",
                    "output" : 33
                },
                {
                    "input" : 32,
                    "interpolation" : "LINEAR",
                    "output" : 34
                },
                {
                    "input" : 32,
                    "interpolation" : "LINEAR",
                    "output" : 35
                }
            ]
        }
    ],
    "materials" : [
        {
            "doubleSided" : true,
            "name" : "board",
            "pbrMetallicRoughness" : {
                "baseColorFactor" : [
                    0.0112361004576087,
                    0.06071919947862625,
                    0.012828500010073185,
                    1
                ],
                "metallicFactor" : 0,
                "roughnessFactor" : 0.9916624426841736
            }
        },
        {
            "doubleSided" : true,
            "name" : "board_edge",
            "pbrMetallicRoughness" : {
                "baseColorFactor" : [
                    0.15743400156497955,
                    0.12999700009822845,
                    0.08923350274562836,
                    1
                ],
                "metallicFactor" : 0,
                "roughnessFactor" : 0.989399254322052
            }
        },
        {
            "doubleSided" : true,
            "name" : "leads",
            "pbrMetallicRoughness" : {
                "baseColorFactor" : [
                    0.6382719874382019,
                    0.6382719874382019,
                    0.6382719874382019,
                    1
                ],
                "metallicFactor" : 0,
                "roughnessFactor" : 0.8257325291633606
            }
        },
        {
            "doubleSided" : true,
            "name" : "black_shiny",
            "pbrMetallicRoughness" : {
                "baseColorFactor" : [
                    0.00807586032897234,
                    0.00807586032897234,
                    0.00807586032897234,
                    1
                ],
                "metallicFactor" : 0,
                "roughnessFactor" : 0.9985390305519104
            }
        },
        {
            "doubleSided" : true,
            "name" : "casing",
            "pbrMetallicRoughness" : {
                "baseColorFactor" : [
                    0.2461950033903122,
                    0.2461950033903122,
                    0.2461950033903122,
                    1
                ],
                "metallicFactor" : 0,
                "roughnessFactor" : 0.9518930912017822
            }
        },
        {
            "alphaMode" : "BLEND",
            "doubleSided" : true,
            "extensions" : {
                "KHR_materials_transmission" : {
                    "transmissionFactor" : 0.059260670095682144
                }
            },
            "name" : "material",
            "pbrMetallicRoughness" : {
                "baseColorFactor" : [
                    0.7356590032577515,
                    0.7047269940376282,
                    0.727853000164032,
                    0.9407393336296082
                ],
                "metallicFactor" : 0,
                "roughnessFactor" : 0.8293732404708862
            }
        },
        {
            "doubleSided" : true,
            "name" : "capacitor",
            "pbrMetallicRoughness" : {
                "baseColorFactor" : [
                    0.43854400515556335,
                    0.3047899901866913,
                    0.13102799654006958,
                    1
                ],
                "metallicFactor" : 0,
                "roughnessFactor" : 0.9282936453819275
            }
        },
        {
            "doubleSided" : true,
            "name" : "black",
            "pbrMetallicRoughness" : {
                "baseColorFactor" : [
                    0.010021800175309181,
                    0.010021800175309181,
                    0.010021800175309181,
                    1
                ],
                "metallicFactor" : 0,
                "roughnessFactor" : 0.9990934729576111
            }
        }
    ],
    "meshes" : [
        {
            "name" : "board_board_0",
            "primitives" : [
                {
                    "attributes" : {
                        "POSITION" : 0,
                        "TEXCOORD_0" : 1,
                        "NORMAL" : 2
                    },
                    "indices" : 3,
                    "material" : 0
                },
                {
                    "attributes" : {
                        "POSITION" : 4,
                        "TEXCOORD_0" : 5,
                        "NORMAL" : 6
                    },
                    "indices" : 7,
                    "material" : 1
                },
                {
                    "attributes" : {
                        "POSITION" : 8,
                        "TEXCOORD_0" : 9,
                        "NORMAL" : 10
                    },
                    "indices" : 11,
                    "material" : 2
                },
                {
                    "attributes" : {
                        "POSITION" : 12,
                        "TEXCOORD_0" : 13,
                        "NORMAL" : 14
                    },
                    "indices" : 15,
                    "material" : 3
                },
                {
                    "attributes" : {
                        "POSITION" : 16,
                        "TEXCOORD_0" : 17,
                        "NORMAL" : 18
                    },
                    "indices" : 19,
                    "material" : 4
                },
                {
                    "attributes" : {
                        "POSITION" : 20,
                        "TEXCOORD_0" : 21,
                        "NORMAL" : 22
                    },
                    "indices" : 23,
                    "material" : 5
                },
                {
                    "attributes" : {
                        "POSITION" : 24,
                        "TEXCOORD_0" : 25,
                        "NORMAL" : 26
                    },
                    "indices" : 27,
                    "material" : 6
                },
                {
                    "attributes" : {
                        "POSITION" : 28,
                        "TEXCOORD_0" : 29,
                        "NORMAL" : 30
                    },
                    "indices" : 31,
                    "material" : 7
                }
            ]
        }
    ],
    "accessors" : [
        {
            "bufferView" : 0,
            "componentType" : 5126,
            "count" : 8,
            "max" : [
                5,
                4,
                1
            ],
            "min" : [
                -5,
                -4,
                0
            ],
            "type" : "VEC3"
        },
        {
            "bufferView" : 1,
            "componentType" : 5126,
            "count" : 8,
            "type" : "VEC2"
        },
        {
            "bufferView" : 2,
            "componentType" : 5126,
            "count" : 8,
            "type" : "VEC3"
        },
        {
            "bufferView" : 3,
            "componentType" : 5123,
            "count" : 12,
            "type" : "SCALAR"
        },
        {
            "bufferView" : 4,
            "componentType" : 5126,
            "count" : 16,
            "max" : [
                4.999995708465576,
                3.999999761581421,
                0.9999999403953552
            ],
            "min" : [
                -5.000003337860107,
                -3.999999761581421,
                0
            ],
            "type" : "VEC3"
        },
        {
            "bufferView" : 5,
            "componentType" : 5126,
            "count" : 16,
            "type" : "VEC2"
        },
        {
            "bufferView" : 6,
            "componentType" : 5126,
            "count" : 16,
            "type" : "VEC3"
        },
        {
            "bufferView" : 7,
            "componentType" : 5123,
            "count" : 24,
            "type" : "SCALAR"
        },
        {
            "bufferView" : 8,
            "componentType" : 5126,
            "count" : 438,
            "max" : [
                3.194725513458252,
                3.105282783508301,
                2.1391406059265137
            ],
            "min" : [
                -2.9038782119750977,
                -4.246258735656738,
                -7.684689998626709
            ],
            "type" : "VEC3"
        },
        {
            "bufferView" : 9,
            "componentType" : 5126,
            "count" : 438,
            "type" : "VEC2"
        },
        {
            "bufferView" : 10,
            "componentType" : 5126,
            "count" : 438,
            "type" : "VEC3"
        },
        {
            "bufferView" : 11,
            "componentType" : 5123,
            "count" : 1152,
            "type" : "SCALAR"
        },
        {
            "bufferView" : 12,
            "componentType" : 5126,
            "count" : 180,
            "max" : [
                3.89542293548584,
                3.8059816360473633,
                -2.521491527557373
            ],
            "min" : [
                -3.6045761108398438,
                1.305981993675232,
                -5.021491050720215
            ],
            "type" : "VEC3"
        },
        {
            "bufferView" : 13,
            "componentType" : 5126,
            "count" : 180,
            "type" : "VEC2"
        },
        {
            "bufferView" : 14,
            "componentType" : 5126,
            "count" : 180,
            "type" : "VEC3"
        },
        {
            "bufferView" : 15,
            "componentType" : 5123,
            "count" : 228,
            "type" : "SCALAR"
        },
        {
            "bufferView" : 16,
            "componentType" : 5126,
            "count" : 200,
            "max" : [
                3.341935157775879,
                -4.011158466339111,
                5.331356048583984
            ],
            "min" : [
                -6.358063697814941,
                -8.711160659790039,
                -4.368643760681152
            ],
            "type" : "VEC3"
        },
        {
            "bufferView" : 17,
            "componentType" : 5126,
            "count" : 200,
            "type" : "VEC2"
        },
        {
            "bufferView" : 18,
            "componentType" : 5126,
            "count" : 200,
            "type" : "VEC3"
        },
        {
            "bufferView" : 19,
            "componentType" : 5123,
            "count" : 1188,
            "type" : "SCALAR"
        },
        {
            "bufferView" : 20,
            "componentType" : 5126,
            "count" : 1301,
            "max" : [
                4.841641902923584,
                -4.070127010345459,
                6.831061363220215
            ],
            "min" : [
                -7.857769966125488,
                -13.811161994934082,
                -5.86835241317749
            ],
            "type" : "VEC3"
        },
        {
            "bufferView" : 21,
            "componentType" : 5126,
            "count" : 1301,
            "type" : "VEC2"
        },
        {
            "bufferView" : 22,
            "componentType" : 5126,
            "count" : 1301,
            "type" : "VEC3"
        },
        {
            "bufferView" : 23,
            "componentType" : 5123,
            "count" : 2214,
            "type" : "SCALAR"
        },
        {
            "bufferView" : 24,
            "componentType" : 5126,
            "count" : 260,
            "max" : [
                3.752199411392212,
                0.7148770689964294,
                1.6340640783309937
            ],
            "min" : [
                -1.4635833501815796,
                -1.432110071182251,
                -1.167184591293335
            ],
            "type" : "VEC3"
        },
        {
            "bufferView" : 25,
            "componentType" : 5126,
            "count" : 260,
            "type" : "VEC2"
        },
        {
            "bufferView" : 26,
            "componentType" : 5126,
            "count" : 260,
            "type" : "VEC3"
        },
        {
            "bufferView" : 27,
            "componentType" : 5123,
            "count" : 972,
            "type" : "SCALAR"
        },
        {
            "bufferView" : 28,
            "componentType" : 5126,
            "count" : 182,
            "max" : [
                1.5854514837265015,
                0.7148770689964294,
                1.448724627494812
            ],
            "min" : [
                -2.644583225250244,
                -1.9832429885864258,
                -0.7904819846153259
            ],
            "type" : "VEC3"
        },
        {
            "bufferView" : 29,
            "componentType" : 5126,
            "count" : 182,
            "type" : "VEC2"
        },
        {
            "bufferView" : 30,
            "componentType" : 5126,
            "count" : 182,
            "type" : "VEC3"
        },
        {
            "bufferView" : 31,
            "componentType" : 5123,
            "count" : 648,
            "type" : "SCALAR"
        },
        {
            "bufferView" : 32,
            "componentType" : 5126,
            "count" : 2,
            "max" : [
                0.041666666666666664
            ],
            "min" : [
                0
            ],
            "type" : "SCALAR"
        },
        {
            "bufferView" : 33,
            "componentType" : 5126,
            "count" : 2,
            "type" : "VEC3"
        },
        {
            "bufferView" : 34,
            "componentType" : 5126,
            "count" : 2,
            "type" : "VEC4"
        },
        {
            "bufferView" : 35,
            "componentType" : 5126,
            "count" : 2,
            "type" : "VEC3"
        }
    ],
    "bufferViews" : [
        {
            "buffer" : 0,
            "byteLength" : 96,
            "byteOffset" : 0,
            "target" : 34962
        },
        {
            "buffer" : 0,
            "byteLength" : 64,
            "byteOffset" : 96,
            "target" : 34962
        },
        {
            "buffer" : 0,
            "byteLength" : 96,
            "byteOffset" : 160,
            "target" : 34962
        },
        {
            "buffer" : 0,
            "byteLength" : 24,
            "byteOffset" : 256,
            "target" : 34963
        },
        {
            "buffer" : 0,
            "byteLength" : 192,
            "byteOffset" : 280,
            "target" : 34962
        },
        {
            "buffer" : 0,
            "byteLength" : 128,
            "byteOffset" : 472,
            "target" : 34962
        },
        {
            "buffer" : 0,
            "byteLength" : 192,
            "byteOffset" : 600,
            "target" : 34962
        },
        {
            "buffer" : 0,
            "byteLength" : 48,
            "byteOffset" : 792,
            "target" : 34963
        },
        {
            "buffer" : 0,
            "byteLength" : 5256,
            "byteOffset" : 840,
            "target" : 34962
        },
        {
            "buffer" : 0,
            "byteLength" : 3504,
            "byteOffset" : 6096,
            "target" : 34962
        },
        {
            "buffer" : 0,
            "byteLength" : 5256,
            "byteOffset" : 9600,
            "target" : 34962
        },
        {
            "buffer" : 0,
            "byteLength" : 2304,
            "byteOffset" : 14856,
            "target" : 34963
        },
        {
            "buffer" : 0,
            "byteLength" : 2160,
            "byteOffset" : 17160,
            "target" : 34962
        },
        {
            "buffer" : 0,
            "byteLength" : 1440,
            "byteOffset" : 19320,
            "target" : 34962
        },
        {
            "buffer" : 0,
            "byteLength" : 2160,
            "byteOffset" : 20760,
            "target" : 34962
        },
        {
            "buffer" : 0,
            "byteLength" : 456,
            "byteOffset" : 22920,
            "target" : 34963
        },
        {
            "buffer" : 0,
            "byteLength" : 2400,
            "byteOffset" : 23376,
            "target" : 34962
        },
        {
            "buffer" : 0,
            "byteLength" : 1600,
            "byteOffset" : 25776,
            "target" : 34962
        },
        {
            "buffer" : 0,
            "byteLength" : 2400,
            "byteOffset" : 27376,
            "target" : 34962
        },
        {
            "buffer" : 0,
            "byteLength" : 2376,
            "byteOffset" : 29776,
            "target" : 34963
        },
        {
            "buffer" : 0,
            "byteLength" : 15612,
            "byteOffset" : 32152,
            "target" : 34962
        },
        {
            "buffer" : 0,
            "byteLength" : 10408,
            "byteOffset" : 47764,
            "target" : 34962
        },
        {
            "buffer" : 0,
            "byteLength" : 15612,
            "byteOffset" : 58172,
            "target" : 34962
        },
        {
            "buffer" : 0,
            "byteLength" : 4428,
            "byteOffset" : 73784,
            "target" : 34963
        },
        {
            "buffer" : 0,
            "byteLength" : 3120,
            "byteOffset" : 78212,
            "target" : 34962
        },
        {
            "buffer" : 0,
            "byteLength" : 2080,
            "byteOffset" : 81332,
            "target" : 34962
        },
        {
            "buffer" : 0,
            "byteLength" : 3120,
            "byteOffset" : 83412,
            "target" : 34962
        },
        {
            "buffer" : 0,
            "byteLength" : 1944,
            "byteOffset" : 86532,
            "target" : 34963
        },
        {
            "buffer" : 0,
            "byteLength" : 2184,
            "byteOffset" : 88476,
            "target" : 34962
        },
        {
            "buffer" : 0,
            "byteLength" : 1456,
            "byteOffset" : 90660,
            "target" : 34962
        },
        {
            "buffer" : 0,
            "byteLength" : 2184,
            "byteOffset" : 92116,
            "target" : 34962
        },
        {
            "buffer" : 0,
            "byteLength" : 1296,
            "byteOffset" : 94300,
            "target" : 34963
        },
        {
            "buffer" : 0,
            "byteLength" : 8,
            "byteOffset" : 95596
        },
        {
            "buffer" : 0,
            "byteLength" : 24,
            "byteOffset" : 95604
        },
        {
            "buffer" : 0,
            "byteLength" : 32,
            "byteOffset" : 95628
        },
        {
            "buffer" : 0,
            "byteLength" : 24,
            "byteOffset" : 95660
        }
    ],
    "buffers" : [
        {
            "byteLength" : 95684,
            "uri" : "data:application/octet-stream;base64,"
        }
    ]
}
