{
    "asset" : {
        "generator" : "Khronos glTF Blender I/O v3.4.50",
        "version" : "2.0"
    },
    "scene" : 0,
    "scenes" : [
        {
            "name" : "Scene",
            "nodes" : [
                0
            ]
        }
    ],
    "nodes" : [
        {
            "mesh" : 0,
            "name" : "Object_10",
            "scale" : [
                0.33600956201553345,
                0.33600959181785583,
                0.33600959181785583
            ],
            "translation" : [
                14.981595039367676,
                15.71982192993164,
                11.433300018310547
            ]
        }
    ],
    "animations" : [
        {
            "channels" : [
                {
                    "sampler" : 0,
                    "target" : {
                        "node" : 0,
                        "path" : "translation"
                    }
                },
                {
                    "sampler" : 1,
                    "target" : {
                        "node" : 0,
                        "path" : "rotation"
                    }
                },
                {
                    "sampler" : 2,
                    "target" : {
                        "node" : 0,
                        "path" : "scale"
                    }
                }
            ],
            "name" : "Object_10",
            "samplers" : [
                {
                    "input" : 16,
                    "interpolation" : "LINEAR",
                    "output" : 17
                },
                {
                    "input" : 16,
                    "interpolation" : "LINEAR",
                    "output" : 18
                },
                {
                    "input" : 16,
                    "interpolation" : "LINEAR",
                    "output" : 19
                }
            ]
        }
    ],
    "materials" : [
        {
            "doubleSided" : true,
            "name" : "Red_Plastic",
            "pbrMetallicRoughness" : {
                "baseColorFactor" : [
                    0.6353470087051392,
                    0.006794140208512545,
                    0.005571260116994381,
                    1
                ],
                "metallicFactor" : 0,
                "roughnessFactor" : 0.24127799272537231
            }
        },
        {
            "doubleSided" : true,
            "name" : "Black_Plastic",
            "pbrMetallicRoughness" : {
                "baseColorFactor" : [
                    0.010021800175309181,
                    0.010021800175309181,
                    0.010021800175309181,
                    1
                ],
                "metallicFactor" : 0,
                "roughnessFactor" : 0.8443710207939148
            }
        },
        {
            "doubleSided" : true,
            "name" : "Metal",
            "pbrMetallicRoughness" : {
                "baseColorFactor" : [
                    0.48689699172973633,
                    0.48689699172973633,
                    0.48689699172973633,
                    1
                ],
                "metallicFactor" : 0.7814570069313049,
                "roughnessFactor" : 0.36157599091529846
            }
        },
        {
            "doubleSided" : true,
            "name" : "Yellow_Plastic",
            "pbrMetallicRoughness" : {
                "baseColorFactor" : [
                    0.8275579810142517,
                    0.49154800176620483,
                    0.02495409920811653,
                    1
                ],
                "metallicFactor" : 0,
                "roughnessFactor" : 0.33148398995399475
            }
        }
    ],
    "meshes" : [
        {
            "name" : "Object_4",
            "primitives" : [
                {
                    "attributes" : {
                        "POSITION" : 0,
                        "TEXCOORD_0" : 1,
                        "NORMAL" : 2
                    },
                    "indices" : 3,
                    "material" : 0
                },
                {
                    "attributes" : {
                        "POSITION" : 4,
                        "TEXCOORD_0" : 5,
                        "NORMAL" : 6
                    },
                    "indices" : 7,
                    "material" : 1
                },
                {
                    "attributes" : {
                        "POSITION" : 8,
                        "TEXCOORD_0" : 9,
                        "NORMAL" : 10
                    },
                    "indices" : 11,
                    "material" : 2
                },
                {
                    "attributes" : {
                        "POSITION" : 12,
                        "TEXCOORD_0" : 13,
                        "NORMAL" : 14
                    },
                    "indices" : 15,
                    "material" : 3
                }
            ]
        }
    ],
    "accessors" : [
        {
            "bufferView" : 0,
            "componentType" : 5126,
            "count" : 869,
            "max" : [
                6.5,
                12.549999237060547,
                6.46439266204834
            ],
            "min" : [
                -6.5,
                4.318722248077393,
                -6.46439266204834
            ],
            "type" : "VEC3"
        },
        {
            "bufferView" : 1,
            "componentType" : 5126,
            "count" : 869,
            "type" : "VEC2"
        },
        {
            "bufferView" : 2,
            "componentType" : 5126,
            "count" : 869,
            "type" : "VEC3"
        },
        {
            "bufferView" : 3,
            "componentType" : 5123,
            "count" : 2160,
            "type" : "SCALAR"
        },
        {
            "bufferView" : 4,
            "componentType" : 5126,
            "count" : 333,
            "max" : [
                5.999996185302734,
                3.8099896907806396,
                6
            ],
            "min" : [
                -6.000003814697266,
                -1.5334159135818481,
                -6
            ],
            "type" : "VEC3"
        },
        {
            "bufferView" : 5,
            "componentType" : 5126,
            "count" : 333,
            "type" : "VEC2"
        },
        {
            "bufferView" : 6,
            "componentType" : 5126,
            "count" : 333,
            "type" : "VEC3"
        },
        {
            "bufferView" : 7,
            "componentType" : 5123,
            "count" : 1026,
            "type" : "SCALAR"
        },
        {
            "bufferView" : 8,
            "componentType" : 5126,
            "count" : 390,
            "max" : [
                6.820802211761475,
                3.5,
                6
            ],
            "min" : [
                -6.820809841156006,
                -3.5377347469329834,
                -6
            ],
            "type" : "VEC3"
        },
        {
            "bufferView" : 9,
            "componentType" : 5126,
            "count" : 390,
            "type" : "VEC2"
        },
        {
            "bufferView" : 10,
            "componentType" : 5126,
            "count" : 390,
            "type" : "VEC3"
        },
        {
            "bufferView" : 11,
            "componentType" : 5123,
            "count" : 738,
            "type" : "SCALAR"
        },
        {
            "bufferView" : 12,
            "componentType" : 5126,
            "count" : 252,
            "max" : [
                3.5499961376190186,
                7.300000190734863,
                3.549999952316284
            ],
            "min" : [
                -3.55000376701355,
                2.7427215576171875,
                -3.549999952316284
            ],
            "type" : "VEC3"
        },
        {
            "bufferView" : 13,
            "componentType" : 5126,
            "count" : 252,
            "type" : "VEC2"
        },
        {
            "bufferView" : 14,
            "componentType" : 5126,
            "count" : 252,
            "type" : "VEC3"
        },
        {
            "bufferView" : 15,
            "componentType" : 5123,
            "count" : 756,
            "type" : "SCALAR"
        },
        {
            "bufferView" : 16,
            "componentType" : 5126,
            "count" : 2,
            "max" : [
                0.041666666666666664
            ],
            "min" : [
                0
            ],
            "type" : "SCALAR"
        },
        {
            "bufferView" : 17,
            "componentType" : 5126,
            "count" : 2,
            "type" : "VEC3"
        },
        {
            "bufferView" : 18,
            "componentType" : 5126,
            "count" : 2,
            "type" : "VEC4"
        },
        {
            "bufferView" : 19,
            "componentType" : 5126,
            "count" : 2,
            "type" : "VEC3"
        }
    ],
    "bufferViews" : [
        {
            "buffer" : 0,
            "byteLength" : 10428,
            "byteOffset" : 0,
            "target" : 34962
        },
        {
            "buffer" : 0,
            "byteLength" : 6952,
            "byteOffset" : 10428,
            "target" : 34962
        },
        {
            "buffer" : 0,
            "byteLength" : 10428,
            "byteOffset" : 17380,
            "target" : 34962
        },
        {
            "buffer" : 0,
            "byteLength" : 4320,
            "byteOffset" : 27808,
            "target" : 34963
        },
        {
            "buffer" : 0,
            "byteLength" : 3996,
            "byteOffset" : 32128,
            "target" : 34962
        },
        {
            "buffer" : 0,
            "byteLength" : 2664,
            "byteOffset" : 36124,
            "target" : 34962
        },
        {
            "buffer" : 0,
            "byteLength" : 3996,
            "byteOffset" : 38788,
            "target" : 34962
        },
        {
            "buffer" : 0,
            "byteLength" : 2052,
            "byteOffset" : 42784,
            "target" : 34963
        },
        {
            "buffer" : 0,
            "byteLength" : 4680,
            "byteOffset" : 44836,
            "target" : 34962
        },
        {
            "buffer" : 0,
            "byteLength" : 3120,
            "byteOffset" : 49516,
            "target" : 34962
        },
        {
            "buffer" : 0,
            "byteLength" : 4680,
            "byteOffset" : 52636,
            "target" : 34962
        },
        {
            "buffer" : 0,
            "byteLength" : 1476,
            "byteOffset" : 57316,
            "target" : 34963
        },
        {
            "buffer" : 0,
            "byteLength" : 3024,
            "byteOffset" : 58792,
            "target" : 34962
        },
        {
            "buffer" : 0,
            "byteLength" : 2016,
            "byteOffset" : 61816,
            "target" : 34962
        },
        {
            "buffer" : 0,
            "byteLength" : 3024,
            "byteOffset" : 63832,
            "target" : 34962
        },
        {
            "buffer" : 0,
            "byteLength" : 1512,
            "byteOffset" : 66856,
            "target" : 34963
        },
        {
            "buffer" : 0,
            "byteLength" : 8,
            "byteOffset" : 68368
        },
        {
            "buffer" : 0,
            "byteLength" : 24,
            "byteOffset" : 68376
        },
        {
            "buffer" : 0,
            "byteLength" : 32,
            "byteOffset" : 68400
        },
        {
            "buffer" : 0,
            "byteLength" : 24,
            "byteOffset" : 68432
        }
    ],
    "buffers" : [
        {
            "byteLength" : 68456,
            "uri" : "data:application/octet-stream;base64,"
        }
    ]
}
