{
    "asset" : {
        "generator" : "Khronos glTF Blender I/O v3.4.50",
        "version" : "2.0"
    },
    "scene" : 0,
    "scenes" : [
        {
            "name" : "Scene",
            "nodes" : [
                0
            ]
        }
    ],
    "nodes" : [
        {
            "mesh" : 0,
            "name" : "Base.002",
            "rotation" : [
                0,
                0.7071046233177185,
                0,
                0.7071089148521423
            ],
            "scale" : [
                -0.13432711362838745,
                -0.13428278267383575,
                -0.1343054622411728
            ],
            "translation" : [
                23.777137756347656,
                10.081855773925781,
                44.18910217285156
            ]
        }
    ],
    "animations" : [
        {
            "channels" : [
                {
                    "sampler" : 0,
                    "target" : {
                        "node" : 0,
                        "path" : "translation"
                    }
                },
                {
                    "sampler" : 1,
                    "target" : {
                        "node" : 0,
                        "path" : "rotation"
                    }
                },
                {
                    "sampler" : 2,
                    "target" : {
                        "node" : 0,
                        "path" : "scale"
                    }
                }
            ],
            "name" : "Base.002",
            "samplers" : [
                {
                    "input" : 15,
                    "interpolation" : "LINEAR",
                    "output" : 16
                },
                {
                    "input" : 15,
                    "interpolation" : "LINEAR",
                    "output" : 17
                },
                {
                    "input" : 15,
                    "interpolation" : "LINEAR",
                    "output" : 18
                }
            ]
        }
    ],
    "materials" : [
        {
            "doubleSided" : true,
            "name" : "SOLID-LIGHT_GRAY",
            "pbrMetallicRoughness" : {
                "baseColorFactor" : [
                    0.6039220094680786,
                    0.6274510025978088,
                    0.6117650270462036,
                    1
                ],
                "metallicFactor" : 0,
                "roughnessFactor" : 0.6636414527893066
            }
        },
        {
            "doubleSided" : true,
            "name" : "SOLID-RED",
            "pbrMetallicRoughness" : {
                "baseColorFactor" : [
                    0.784313976764679,
                    0.09803920239210129,
                    0.03137249872088432,
                    1
                ],
                "metallicFactor" : 0,
                "roughnessFactor" : 0.6636414527893066
            }
        },
        {
            "doubleSided" : true,
            "name" : "SOLID-BLACK",
            "pbrMetallicRoughness" : {
                "baseColorFactor" : [
                    0.01568629965186119,
                    0.07058820128440857,
                    0.10980399698019028,
                    1
                ],
                "metallicFactor" : 0,
                "roughnessFactor" : 0.6636414527893066
            }
        },
        {
            "doubleSided" : true,
            "name" : "SOLID-TAN",
            "pbrMetallicRoughness" : {
                "baseColorFactor" : [
                    0.8901960253715515,
                    0.800000011920929,
                    0.6156859993934631,
                    1
                ],
                "metallicFactor" : 0,
                "roughnessFactor" : 0.6636414527893066
            }
        },
        {
            "doubleSided" : true,
            "name" : "RUBBER-BLACK",
            "pbrMetallicRoughness" : {
                "baseColorFactor" : [
                    0.1254899948835373,
                    0.1254899948835373,
                    0.1254899948835373,
                    1
                ],
                "metallicFactor" : 0,
                "roughnessFactor" : 0.6636414527893066
            }
        }
    ],
    "meshes" : [
        {
            "name" : "Base.002",
            "primitives" : [
                {
                    "attributes" : {
                        "POSITION" : 0,
                        "NORMAL" : 1
                    },
                    "indices" : 2,
                    "material" : 0
                },
                {
                    "attributes" : {
                        "POSITION" : 3,
                        "NORMAL" : 4
                    },
                    "indices" : 5,
                    "material" : 1
                },
                {
                    "attributes" : {
                        "POSITION" : 6,
                        "NORMAL" : 7
                    },
                    "indices" : 8,
                    "material" : 2
                },
                {
                    "attributes" : {
                        "POSITION" : 9,
                        "NORMAL" : 10
                    },
                    "indices" : 11,
                    "material" : 3
                },
                {
                    "attributes" : {
                        "POSITION" : 12,
                        "NORMAL" : 13
                    },
                    "indices" : 14,
                    "material" : 4
                }
            ]
        }
    ],
    "accessors" : [
        {
            "bufferView" : 0,
            "componentType" : 5126,
            "count" : 28996,
            "max" : [
                55.22096252441406,
                55.172271728515625,
                173.426025390625
            ],
            "min" : [
                -55.220603942871094,
                -55.30467224121094,
                -93.03253173828125
            ],
            "type" : "VEC3"
        },
        {
            "bufferView" : 1,
            "componentType" : 5126,
            "count" : 28996,
            "type" : "VEC3"
        },
        {
            "bufferView" : 2,
            "componentType" : 5123,
            "count" : 91464,
            "type" : "SCALAR"
        },
        {
            "bufferView" : 3,
            "componentType" : 5126,
            "count" : 4216,
            "max" : [
                9.93749713897705,
                29.005050659179688,
                70.26453399658203
            ],
            "min" : [
                -9.9370698928833,
                -8.994964599609375,
                10.12895679473877
            ],
            "type" : "VEC3"
        },
        {
            "bufferView" : 4,
            "componentType" : 5126,
            "count" : 4216,
            "type" : "VEC3"
        },
        {
            "bufferView" : 5,
            "componentType" : 5123,
            "count" : 13848,
            "type" : "SCALAR"
        },
        {
            "bufferView" : 6,
            "componentType" : 5126,
            "count" : 6788,
            "max" : [
                7.9250288009643555,
                7.860996723175049,
                110.5225830078125
            ],
            "min" : [
                -7.9245710372924805,
                -7.993398189544678,
                -30.129070281982422
            ],
            "type" : "VEC3"
        },
        {
            "bufferView" : 7,
            "componentType" : 5126,
            "count" : 6788,
            "type" : "VEC3"
        },
        {
            "bufferView" : 8,
            "componentType" : 5123,
            "count" : 20064,
            "type" : "SCALAR"
        },
        {
            "bufferView" : 9,
            "componentType" : 5126,
            "count" : 2436,
            "max" : [
                7.925169467926025,
                7.861035346984863,
                150.7805938720703
            ],
            "min" : [
                -7.924803256988525,
                -7.993436813354492,
                -70.38712310791016
            ],
            "type" : "VEC3"
        },
        {
            "bufferView" : 10,
            "componentType" : 5126,
            "count" : 2436,
            "type" : "VEC3"
        },
        {
            "bufferView" : 11,
            "componentType" : 5123,
            "count" : 7392,
            "type" : "SCALAR"
        },
        {
            "bufferView" : 12,
            "componentType" : 5126,
            "count" : 15704,
            "max" : [
                78.36665344238281,
                78.32564544677734,
                174.93580627441406
            ],
            "min" : [
                -78.36634826660156,
                -78.45805358886719,
                -94.54231262207031
            ],
            "type" : "VEC3"
        },
        {
            "bufferView" : 13,
            "componentType" : 5126,
            "count" : 15704,
            "type" : "VEC3"
        },
        {
            "bufferView" : 14,
            "componentType" : 5123,
            "count" : 39312,
            "type" : "SCALAR"
        },
        {
            "bufferView" : 15,
            "componentType" : 5126,
            "count" : 2,
            "max" : [
                0.041666666666666664
            ],
            "min" : [
                0
            ],
            "type" : "SCALAR"
        },
        {
            "bufferView" : 16,
            "componentType" : 5126,
            "count" : 2,
            "type" : "VEC3"
        },
        {
            "bufferView" : 17,
            "componentType" : 5126,
            "count" : 2,
            "type" : "VEC4"
        },
        {
            "bufferView" : 18,
            "componentType" : 5126,
            "count" : 2,
            "type" : "VEC3"
        }
    ],
    "bufferViews" : [
        {
            "buffer" : 0,
            "byteLength" : 347952,
            "byteOffset" : 0,
            "target" : 34962
        },
        {
            "buffer" : 0,
            "byteLength" : 347952,
            "byteOffset" : 347952,
            "target" : 34962
        },
        {
            "buffer" : 0,
            "byteLength" : 182928,
            "byteOffset" : 695904,
            "target" : 34963
        },
        {
            "buffer" : 0,
            "byteLength" : 50592,
            "byteOffset" : 878832,
            "target" : 34962
        },
        {
            "buffer" : 0,
            "byteLength" : 50592,
            "byteOffset" : 929424,
            "target" : 34962
        },
        {
            "buffer" : 0,
            "byteLength" : 27696,
            "byteOffset" : 980016,
            "target" : 34963
        },
        {
            "buffer" : 0,
            "byteLength" : 81456,
            "byteOffset" : 1007712,
            "target" : 34962
        },
        {
            "buffer" : 0,
            "byteLength" : 81456,
            "byteOffset" : 1089168,
            "target" : 34962
        },
        {
            "buffer" : 0,
            "byteLength" : 40128,
            "byteOffset" : 1170624,
            "target" : 34963
        },
        {
            "buffer" : 0,
            "byteLength" : 29232,
            "byteOffset" : 1210752,
            "target" : 34962
        },
        {
            "buffer" : 0,
            "byteLength" : 29232,
            "byteOffset" : 1239984,
            "target" : 34962
        },
        {
            "buffer" : 0,
            "byteLength" : 14784,
            "byteOffset" : 1269216,
            "target" : 34963
        },
        {
            "buffer" : 0,
            "byteLength" : 188448,
            "byteOffset" : 1284000,
            "target" : 34962
        },
        {
            "buffer" : 0,
            "byteLength" : 188448,
            "byteOffset" : 1472448,
            "target" : 34962
        },
        {
            "buffer" : 0,
            "byteLength" : 78624,
            "byteOffset" : 1660896,
            "target" : 34963
        },
        {
            "buffer" : 0,
            "byteLength" : 8,
            "byteOffset" : 1739520
        },
        {
            "buffer" : 0,
            "byteLength" : 24,
            "byteOffset" : 1739528
        },
        {
            "buffer" : 0,
            "byteLength" : 32,
            "byteOffset" : 1739552
        },
        {
            "buffer" : 0,
            "byteLength" : 24,
            "byteOffset" : 1739584
        }
    ],
    "buffers" : [
        {
            "byteLength" : 1739608,
            "uri" : "data:application/octet-stream;base64,"
        }
    ]
}
